
            <svg xmlns="http://www.w3.org/2000/svg" width="800" height="400" viewBox="0 0 800 400">
              <!-- https://grabient.com/HQVhCYBpQDgTmgNgMwAZoQOzQCxuspgsODNsAIwiLQWZTKjjojCJWQXA7iJA?style=linearSwatches&steps=13&angle=135 -->
        <polygon points="1032.4555320336758,199.99999999999994 400.00000000000006,832.4555320336759 351.3495744589481,783.8051064926238 983.8051064926238,151.34957445894798" fill="rgb(7, 68, 74)" fill-opacity="1" /><polygon points="983.805106492624,151.34957445894793 351.3495744589481,783.8051064926238 302.69914891789614,735.1546809515718 935.1546809515719,102.69914891789595" fill="rgb(11, 74, 71)" fill-opacity="1" /><polygon points="935.154680951572,102.69914891789598 302.69914891789614,735.154680951572 254.04872337684415,686.5042554105199 886.5042554105199,54.048723376843995" fill="rgb(18, 81, 68)" fill-opacity="1" /><polygon points="886.5042554105199,54.04872337684402 254.0487233768441,686.5042554105199 205.39829783579208,637.8538298694679 837.8538298694679,5.398297835792036" fill="rgb(28, 88, 66)" fill-opacity="1" /><polygon points="837.853829869468,5.3982978357920075 205.39829783579214,637.853829869468 156.74787229474012,589.2034043284159 789.2034043284159,-43.25212770525998" fill="rgb(40, 96, 65)" fill-opacity="1" /><polygon points="789.203404328416,-43.25212770525998 156.74787229474012,589.203404328416 108.0974467536881,540.5529787873639 740.5529787873639,-91.90255324631197" fill="rgb(55, 104, 64)" fill-opacity="1" /><polygon points="740.5529787873639,-91.90255324631197 108.0974467536881,540.5529787873639 59.447021212636095,491.9025532463119 691.9025532463119,-140.55297878736394" fill="rgb(71, 112, 64)" fill-opacity="1" /><polygon points="691.9025532463119,-140.55297878736394 59.44702121263608,491.9025532463119 10.796595671584079,443.25212770525997 643.2521277052598,-189.20340432841596" fill="rgb(89, 120, 65)" fill-opacity="1" /><polygon points="643.2521277052599,-189.20340432841596 10.796595671584065,443.25212770525997 -37.85382986946794,394.601702164208 594.6017021642078,-237.85382986946792" fill="rgb(108, 129, 67)" fill-opacity="1" /><polygon points="594.601702164208,-237.85382986946792 -37.853829869467894,394.601702164208 -86.5042554105199,345.95127662315605 545.9512766231559,-286.5042554105199" fill="rgb(128, 138, 70)" fill-opacity="1" /><polygon points="545.9512766231559,-286.50425541051993 -86.5042554105199,345.951276623156 -135.15468095157192,297.30085108210403 497.30085108210386,-335.1546809515719" fill="rgb(148, 147, 73)" fill-opacity="1" /><polygon points="497.30085108210386,-335.1546809515719 -135.1546809515719,297.30085108210403 -183.8051064926239,248.65042554105207 448.6504255410519,-383.80510649262385" fill="rgb(168, 156, 77)" fill-opacity="1" /><polygon points="448.6504255410519,-383.8051064926239 -183.80510649262388,248.65042554105202 -232.4555320336759,200.00000000000006 399.99999999999994,-432.45553203367587" fill="rgb(188, 165, 82)" fill-opacity="1" /></svg>